# xmcd CD database file
#
# Track frame offsets:
#	150
#	18287
#	39697
#	57533
#	75613
#	96934
#
# Disc length: 1526 seconds
#
# Revision: 0
# Processed by: cddbd v1.5.1PL2 Copyright (c) Steve Scherf et al.
# Submitted via: CDex 1.51
#
DISCID=4605f406
DTITLE=ラムジ - 1Lambsey
DYEAR=2005
DGENRE=不明
TTITLE0=キミと月までも
TTITLE1=ボナンザ
TTITLE2=GRETSCH
TTITLE3=キミと月までも-Instrumental-
TTITLE4=ボナンザ-Instrumental-
TTITLE5=GRETSCH-Instrumental-
EXTD=YEAR: 2005/11
EXTT0=
EXTT1=
EXTT2=
EXTT3=
EXTT4=
EXTT5=
PLAYORDER=
